<svg width="82" height="17" viewBox="0 0 82 17" fill="none" xmlns="http://www.w3.org/2000/svg">
<path d="M8 0.5L10.29 5.34807L15.6085 6.02786L11.7053 9.70393L12.7023 14.9721L8 12.396L3.29772 14.9721L4.29468 9.70393L0.391548 6.02786L5.70999 5.34807L8 0.5Z" fill="#FFAC33"/>
<path d="M24.5 0.5L26.79 5.34807L32.1085 6.02786L28.2053 9.70393L29.2023 14.9721L24.5 12.396L19.7977 14.9721L20.7947 9.70393L16.8915 6.02786L22.21 5.34807L24.5 0.5Z" fill="#FFAC33"/>
<path d="M41 0.5L43.29 5.34807L48.6085 6.02786L44.7053 9.70393L45.7023 14.9721L41 12.396L36.2977 14.9721L37.2947 9.70393L33.3915 6.02786L38.71 5.34807L41 0.5Z" fill="#FFAC33"/>
<path d="M57.5 0.5L59.79 5.34807L65.1085 6.02786L61.2053 9.70393L62.2023 14.9721L57.5 12.396L52.7977 14.9721L53.7947 9.70393L49.8915 6.02786L55.21 5.34807L57.5 0.5Z" fill="#FFAC33"/>
<path d="M74 0.5L76.29 5.34807L81.6085 6.02786L77.7053 9.70393L78.7023 14.9721L74 12.396L69.2977 14.9721L70.2947 9.70393L66.3915 6.02786L71.71 5.34807L74 0.5Z" fill="#E5E7EB"/>
</svg>
